<?xml version="1.0" encoding="UTF-8" standalone="no"?>
<svg width="214px" height="77px" viewBox="0 0 214 77" version="1.1" xmlns="http://www.w3.org/2000/svg" xmlns:xlink="http://www.w3.org/1999/xlink">
    <!-- Generator: Sketch 43.2 (39069) - http://www.bohemiancoding.com/sketch -->
    <desc>Created with Sketch.</desc>
    <defs>
        <polygon id="path-1" points="27.4553497 39.6334098 27.4553497 1.1334098 0.70513986 1.1334098 0.70513986 39.6334098 27.4553497 39.6334098"></polygon>
        <polygon id="path-3" points="2.17967853e-16 38.5649216 2.17967853e-16 0.101156863 6.16403497 0.101156863 6.16403497 38.5649216 -4.32908375e-16 38.5649216"></polygon>
        <polygon id="path-5" points="14.6321783 45.2941176 0.00015034965 45.2941176 0.00015034965 0.600124771 14.6321783 0.600124771"></polygon>
    </defs>
    <g id="Page-1" stroke="none" stroke-width="1" fill="none" fill-rule="evenodd">
        <g id="8-kohab_buyer_registration_form" transform="translate(-530.000000, -46.000000)">
            <g id="LOGO" transform="translate(530.000000, 46.000000)">
                <polygon id="Fill-1" fill="#0B324B" points="62.9324545 19.2506039 68.8036084 19.2506039 68.8036084 42.6284078 79.485951 30.5107216 86.4260909 30.5107216 75.3197622 43.2187412 87.7611958 57.3218196 80.5534336 57.3218196 68.8036084 43.9691137 68.8036084 57.3218196 62.9324545 57.3218196"></polygon>
                <g id="Group-21">
                    <path d="M110.562773,43.9161196 C110.562773,39.2508255 107.306199,35.7118451 102.76564,35.7118451 C98.175465,35.7118451 94.971514,39.2508255 94.971514,43.9161196 C94.971514,48.5814137 98.175465,52.1203941 102.76564,52.1203941 C107.306199,52.1203941 110.562773,48.5814137 110.562773,43.9161196 M88.936479,43.9161196 C88.936479,36.0862765 94.8106399,30.0817863 102.76564,30.0817863 C110.669521,30.0817863 116.597808,36.0862765 116.597808,43.9161196 C116.597808,51.7444529 110.669521,57.7504529 102.76564,57.7504529 C94.8106399,57.7504529 88.936479,51.7444529 88.936479,43.9161196" id="Fill-2" fill="#0B324B"></path>
                    <path d="M122.526094,19.2506039 L128.397248,19.2506039 L128.397248,33.0305843 C130.267598,30.9938588 133.097178,30.0819373 135.874136,30.0819373 C142.495535,30.0819373 146.712843,34.6928784 146.712843,41.6108 L146.712843,57.3218196 L140.841689,57.3218196 L140.841689,41.7179961 C140.841689,38.8221922 138.70522,35.7119961 134.752528,35.7119961 C131.763577,35.7119961 129.466234,37.2670941 128.397248,40.4301333 L128.397248,57.3218196 L122.526094,57.3218196 L122.526094,19.2506039 Z" id="Fill-4" fill="#0B324B"></path>
                    <path d="M173.360213,48.4734627 L173.360213,39.3587765 C171.91836,37.160502 169.194024,35.7126 166.257696,35.7126 C161.720143,35.7126 158.516192,39.2515804 158.516192,43.9153647 C158.516192,48.5806588 161.720143,52.1196392 166.257696,52.1196392 C169.194024,52.1196392 171.91836,50.6717373 173.360213,48.4734627 L173.360213,48.4734627 Z M173.360213,55.3913843 C171.491367,56.8921294 169.034654,57.7512078 166.205073,57.7512078 C158.302696,57.7512078 152.481157,51.743698 152.481157,43.9153647 C152.481157,36.0870314 158.302696,30.0810314 166.205073,30.0810314 C169.034654,30.0810314 171.491367,30.9944627 173.360213,32.493698 L173.360213,30.5113255 L179.234374,30.5113255 L179.234374,57.3209137 L173.360213,57.3209137 L173.360213,55.3913843 Z" id="Fill-6" fill="#0B324B"></path>
                    <g id="Group-10" transform="translate(186.433566, 18.117647)">
                        <mask id="mask-2" fill="white">
                            <use xlink:href="#path-1"></use>
                        </mask>
                        <g id="Clip-9"></g>
                        <path d="M6.5777972,21.2409784 L6.5777972,30.3556647 C7.96702797,32.5539392 10.6898601,34.0018412 13.6803147,34.0018412 C18.2193706,34.0018412 21.4218182,30.4628608 21.4218182,25.7990765 C21.4218182,21.1337824 18.2193706,17.594802 13.6803147,17.594802 C10.6898601,17.594802 7.96702797,19.0427039 6.5777972,21.2409784 L6.5777972,21.2409784 Z M0.70513986,1.1334098 L6.5777972,1.1334098 L6.5777972,14.3759 C8.39402098,12.8766647 10.9033566,11.9632333 13.7329371,11.9632333 C21.6368182,11.9632333 27.4568531,17.9692333 27.4568531,25.7990765 C27.4568531,33.6259 21.6368182,39.6334098 13.7329371,39.6334098 C10.9033566,39.6334098 8.39402098,38.7743314 6.5777972,37.2735863 L6.5777972,39.2031157 L0.70513986,39.2031157 L0.70513986,1.1334098 Z" id="Fill-8" fill="#0B324B" mask="url(#mask-2)"></path>
                    </g>
                    <g id="Group-13">
                        <mask id="mask-4" fill="white">
                            <use xlink:href="#path-3"></use>
                        </mask>
                        <g id="Clip-12"></g>
                        <path d="M4.83494406,33.6761765 C5.26344056,33.4225294 5.70847552,33.2081373 6.16403497,33.025451 L6.16403497,3.1962549 C6.16403497,1.48715686 4.78382517,0.101156863 3.08186713,0.101156863 C1.37990909,0.101156863 -0.000300699301,1.48715686 -0.000300699301,3.1962549 L-0.000300699301,34.9217647 C-0.000300699301,36.205098 0.229734266,37.4325686 0.670258741,38.5649216 C1.45207692,36.5402745 2.88941958,34.819098 4.83494406,33.6761765" id="Fill-11" fill="#2EB68C" mask="url(#mask-4)"></path>
                    </g>
                    <path d="M43.7246853,72.0759255 L19.0387762,38.2351804 L18.1456993,39.7525333 C17.3473427,41.1204157 16.2452797,42.257298 14.9447552,43.096749 L38.7526224,75.7326706 C39.357028,76.5615529 40.2937063,76.9993961 41.2424126,76.9993961 C41.8738811,76.9993961 42.5113636,76.8046314 43.0601399,76.4000039 C44.4343357,75.3899451 44.7305245,73.4543765 43.7246853,72.0759255" id="Fill-14" fill="#0B324B"></path>
                    <g id="Group-18" transform="translate(0.000000, 31.705882)">
                        <mask id="mask-6" fill="white">
                            <use xlink:href="#path-5"></use>
                        </mask>
                        <g id="Clip-17"></g>
                        <path d="M14.5915839,1.82580588 C12.0206049,0.376394118 8.90536014,0.217864706 6.16448601,1.32153137 C5.70892657,1.50421765 5.26389161,1.7186098 4.8353951,1.97074706 C2.88987063,3.11517843 1.45252797,4.8363549 0.67070979,6.85949216 C0.234695804,7.98580588 0.00015034965,9.20572745 0.00015034965,10.4739627 L0.00015034965,42.1994725 C0.00015034965,43.9085706 1.38036014,45.2945706 3.08231818,45.2945706 C4.78427622,45.2945706 6.16448601,43.9085706 6.16448601,42.1994725 L6.16448601,12.3385706 L6.16448601,10.4739627 C6.16448601,8.63653137 7.28308741,7.70347255 7.94913636,7.31092353 C8.54301748,6.96064902 9.20305245,6.77796275 9.85556993,6.77645294 C9.98336713,6.76588431 10.1036469,6.75380588 10.2028776,6.73568824 C11.309451,6.54394314 12.2686818,5.87962941 12.8339965,4.90882549 L14.6321783,1.85298235 C14.6201503,1.84392353 14.6066189,1.8333549 14.5915839,1.82580588" id="Fill-16" fill="#0B324B" mask="url(#mask-6)"></path>
                    </g>
                    <path d="M37.701979,0.43104902 C36.2360699,-0.438598039 34.3491818,0.0490686275 33.4816643,1.52112745 L14.6323287,33.5576569 L12.8341469,36.6150098 C12.2688322,37.5843039 11.3096014,38.2516373 10.203028,38.4418725 C10.1037972,38.4584804 9.98201399,38.4720686 9.85572028,38.4826373 C9.2032028,38.4841471 8.54166434,38.6683431 7.94928671,39.0171078 C7.28323776,39.4081471 6.16313287,40.3427157 6.16313287,42.1786373 L6.16313287,44.0447549 C7.25016084,44.4614608 8.40935664,44.6849118 9.5896014,44.6849118 C10.1398811,44.6849118 10.6961748,44.636598 11.2494615,44.5414804 C12.5845664,44.3089706 13.836979,43.8122451 14.9450559,43.0981078 C16.2455804,42.2601667 17.3476434,41.1232843 18.146,39.7538922 L19.0390769,38.2365392 L38.789007,4.66906863 C39.6535175,3.19851961 39.1678881,1.30069608 37.701979,0.43104902" id="Fill-19" fill="#2EB68C"></path>
                </g>
            </g>
        </g>
    </g>
</svg>