<?xml version="1.0" encoding="UTF-8" standalone="no"?>
<svg width="130px" height="48px" viewBox="0 0 130 48" version="1.1" xmlns="http://www.w3.org/2000/svg" xmlns:xlink="http://www.w3.org/1999/xlink">
    <!-- Generator: Sketch 42 (36781) - http://www.bohemiancoding.com/sketch -->
    <title>Kohab_LogoH</title>
    <desc>Created with Sketch.</desc>
    <defs>
        <polygon id="path-1" points="16.9566429 24.1918216 16.9566429 0.691821569 0.4355 0.691821569 0.4355 24.1918216 16.9566429 24.1918216"></polygon>
        <polygon id="path-3" points="-3.09220268e-17 23.5396275 -3.09220268e-17 0.061745098 3.80695714 0.061745098 3.80695714 23.5396275 -4.32908375e-16 23.5396275"></polygon>
        <polygon id="path-5" points="9.03695 27.6470588 9.28571429e-05 27.6470588 9.28571429e-05 0.366309925 9.03695 0.366309925"></polygon>
    </defs>
    <g id="Page-1" stroke="none" stroke-width="1" fill="none" fill-rule="evenodd">
        <g id="13-kohab_seller_dashboard_empty" transform="translate(-151.000000, -15.000000)">
            <g id="Navigation">
                <g id="Kohab_LogoH" transform="translate(151.000000, 15.612784)">
                    <g>
                        <polygon id="Fill-1" fill="#FFFFFF" points="36.0818714 11.7503686 39.7079429 11.7503686 39.7079429 26.0199373 46.3054429 18.6234275 50.5917286 18.6234275 43.7323714 26.3802706 51.4163 34.9886431 46.9647286 34.9886431 39.7079429 26.8382902 39.7079429 34.9886431 36.0818714 34.9886431"></polygon>
                        <g id="Group-21">
                            <path d="M65.4987357,26.8059431 C65.4987357,23.9582961 63.48745,21.7981392 60.6831643,21.7981392 C57.8482357,21.7981392 55.86945,23.9582961 55.86945,26.8059431 C55.86945,29.6535902 57.8482357,31.8137471 60.6831643,31.8137471 C63.48745,31.8137471 65.4987357,29.6535902 65.4987357,26.8059431 M52.1421643,26.8059431 C52.1421643,22.0266882 55.7700929,18.3616098 60.6831643,18.3616098 C65.5646643,18.3616098 69.2260214,22.0266882 69.2260214,26.8059431 C69.2260214,31.5842765 65.5646643,35.2502765 60.6831643,35.2502765 C55.7700929,35.2502765 52.1421643,31.5842765 52.1421643,26.8059431" id="Fill-2" fill="#FFFFFF"></path>
                            <path d="M72.8873786,11.7503686 L76.51345,11.7503686 L76.51345,20.1615255 C77.6685929,18.9183294 79.4161643,18.361702 81.1312357,18.361702 C85.2206643,18.361702 87.8253071,21.1761725 87.8253071,25.3988 L87.8253071,34.9886431 L84.1992357,34.9886431 L84.1992357,25.4642314 C84.1992357,23.6966627 82.8797357,21.7982314 80.4385214,21.7982314 C78.5925214,21.7982314 77.1736643,22.7474471 76.51345,24.6781333 L76.51345,34.9886431 L72.8873786,34.9886431 L72.8873786,11.7503686 Z" id="Fill-4" fill="#FFFFFF"></path>
                            <path d="M104.282936,29.587698 L104.282936,24.0241882 C103.392436,22.6823843 101.709864,21.7986 99.8963643,21.7986 C97.0939357,21.7986 95.11515,23.9587569 95.11515,26.8054824 C95.11515,29.6531294 97.0939357,31.8132863 99.8963643,31.8132863 C101.709864,31.8132863 103.392436,30.929502 104.282936,29.587698 L104.282936,29.587698 Z M104.282936,33.8103255 C103.128721,34.7263647 101.611436,35.2507373 99.8638643,35.2507373 C94.9832929,35.2507373 91.3878643,31.5838157 91.3878643,26.8054824 C91.3878643,22.027149 94.9832929,18.361149 99.8638643,18.361149 C101.611436,18.361149 103.128721,18.918698 104.282936,19.8338157 L104.282936,18.6237961 L107.910864,18.6237961 L107.910864,34.9880902 L104.282936,34.9880902 L104.282936,33.8103255 Z" id="Fill-6" fill="#FFFFFF"></path>
                            <g id="Group-10" transform="translate(112.357143, 11.058824)">
                                <mask id="mask-2" fill="white">
                                    <use xlink:href="#path-1"></use>
                                </mask>
                                <g id="Clip-9"></g>
                                <path d="M4.0625,12.9652725 L4.0625,18.5287824 C4.9205,19.8705863 6.60214286,20.7543706 8.44907143,20.7543706 C11.2524286,20.7543706 13.2302857,18.5942137 13.2302857,15.7474882 C13.2302857,12.8998412 11.2524286,10.7396843 8.44907143,10.7396843 C6.60214286,10.7396843 4.9205,11.6234686 4.0625,12.9652725 L4.0625,12.9652725 Z M0.4355,0.691821569 L4.0625,0.691821569 L4.0625,8.7749 C5.18421429,7.85978235 6.734,7.30223333 8.48157143,7.30223333 C13.3630714,7.30223333 16.9575714,10.9682333 16.9575714,15.7474882 C16.9575714,20.5249 13.3630714,24.1918216 8.48157143,24.1918216 C6.734,24.1918216 5.18421429,23.667449 4.0625,22.7514098 L4.0625,23.9291745 L0.4355,23.9291745 L0.4355,0.691821569 Z" id="Fill-8" fill="#FFFFFF" mask="url(#mask-2)"></path>
                            </g>
                            <g id="Group-13">
                                <mask id="mask-4" fill="white">
                                    <use xlink:href="#path-3"></use>
                                </mask>
                                <g id="Clip-12"></g>
                                <path d="M2.9861,20.5555882 C3.25074286,20.4007647 3.5256,20.269902 3.80695714,20.1583922 L3.80695714,1.95096078 C3.80695714,0.907745098 2.95452857,0.061745098 1.90338571,0.061745098 C0.852242857,0.061745098 -0.000185714286,0.907745098 -0.000185714286,1.95096078 L-0.000185714286,21.3158824 C-0.000185714286,22.0992157 0.141885714,22.848451 0.413957143,23.5396275 C0.896814286,22.3038039 1.78452857,21.2532157 2.9861,20.5555882" id="Fill-11" fill="#FFFFFF" mask="url(#mask-4)"></path>
                            </g>
                            <path d="M27.0047143,43.9943961 L11.7585,23.3383569 L11.2069286,24.2645333 C10.7138571,25.0994745 10.0332143,25.7934157 9.23,26.3058078 L23.9339286,46.2264353 C24.3072143,46.7323765 24.8857143,46.9996314 25.4716429,46.9996314 C25.8616429,46.9996314 26.2553571,46.880749 26.5942857,46.6337686 C27.443,46.0172392 27.6259286,44.8357882 27.0047143,43.9943961" id="Fill-14" fill="#2EB68C"></path>
                            <g id="Group-18" transform="translate(0.000000, 19.352941)">
                                <mask id="mask-6" fill="white">
                                    <use xlink:href="#path-5"></use>
                                </mask>
                                <g id="Clip-17"></g>
                                <path d="M9.01187857,1.11445294 C7.42402143,0.229747059 5.50002143,0.132982353 3.80723571,0.80664902 C3.52587857,0.918158824 3.25102143,1.04902157 2.98637857,1.20292353 C1.78480714,1.90147255 0.897092857,2.95206078 0.414235714,4.18696275 C0.14495,4.87445294 9.28571429e-05,5.61908039 9.28571429e-05,6.39319804 L9.28571429e-05,25.7581196 C9.28571429e-05,26.8013353 0.852521429,27.6473353 1.90366429,27.6473353 C2.95480714,27.6473353 3.80723571,26.8013353 3.80723571,25.7581196 L3.80723571,7.53133529 L3.80723571,6.39319804 C3.80723571,5.27164902 4.49809286,4.70211961 4.90945,4.46251176 C5.27623571,4.24870784 5.68387857,4.13719804 6.08687857,4.13627647 C6.16580714,4.12982549 6.24009286,4.12245294 6.30137857,4.11139412 C6.98480714,3.9943549 7.57723571,3.58886471 7.92637857,2.99629608 L9.03695,1.13104118 C9.02952143,1.12551176 9.02116429,1.11906078 9.01187857,1.11445294" id="Fill-16" fill="#2EB68C" mask="url(#mask-6)"></path>
                            </g>
                            <path d="M23.2850429,0.263107843 C22.3796857,-0.267715686 21.2143286,0.0299509804 20.6785429,0.928480392 L9.03704286,20.4832451 L7.92647143,22.3494216 C7.57732857,22.9410686 6.9849,23.348402 6.30147143,23.4645196 C6.24018571,23.4746569 6.16497143,23.482951 6.08697143,23.489402 C5.68397143,23.4903235 5.2754,23.6027549 4.90954286,23.8156373 C4.49818571,24.0543235 3.8064,24.6247745 3.8064,25.745402 L3.8064,26.8844608 C4.47775714,27.1388137 5.19368571,27.2752059 5.92261429,27.2752059 C6.26247143,27.2752059 6.60604286,27.2457157 6.94775714,27.1876569 C7.77232857,27.0457353 8.54582857,26.7425392 9.23018571,26.3066373 C10.0334,25.7951667 10.7140429,25.1012255 11.2071143,24.2653627 L11.7586857,23.3391863 L23.9564,2.84995098 C24.4903286,1.95234314 24.1904,0.793931373 23.2850429,0.263107843" id="Fill-19" fill="#FFFFFF"></path>
                        </g>
                    </g>
                </g>
            </g>
        </g>
    </g>
</svg>