<?xml version="1.0" encoding="UTF-8" standalone="no"?>

<svg width="361px" height="131px" viewBox="0 0 361 131" version="1.1" xmlns="http://www.w3.org/2000/svg" xmlns:xlink="http://www.w3.org/1999/xlink">
    <!-- Generator: Sketch 43.2 (39069) - http://www.bohemiancoding.com/sketch -->
    <desc>Created with Sketch.</desc>
    <defs></defs>
    <g id="Page-1" stroke="none" stroke-width="1" fill="none" fill-rule="evenodd">
        <g id="1-kohab_buyer_onbaording-1" transform="translate(-634.000000, -311.000000)">
            <g id="Kohab_LogoH" transform="translate(634.000000, 311.000000)">
                <g>
                    <polygon id="Fill-1" fill="#FFFFFF" points="100.474134 32.7510275 110.571349 32.7510275 110.571349 72.5236549 128.942849 51.907851 140.878506 51.907851 121.777834 73.5279882 143.17462 97.5215373 130.778706 97.5215373 110.571349 74.8045961 110.571349 97.5215373 100.474134 97.5215373"></polygon>
                    <path d="M182.388787,74.7144373 C182.388787,66.7773784 176.78813,60.7565157 168.979273,60.7565157 C161.085087,60.7565157 155.57493,66.7773784 155.57493,74.7144373 C155.57493,82.6514961 161.085087,88.6723588 168.979273,88.6723588 C176.78813,88.6723588 182.388787,82.6514961 182.388787,74.7144373 M145.195873,74.7144373 C145.195873,61.3935353 155.298259,51.1781039 168.979273,51.1781039 C182.572373,51.1781039 192.767844,61.3935353 192.767844,74.7144373 C192.767844,88.0327706 182.572373,98.2507706 168.979273,98.2507706 C155.298259,98.2507706 145.195873,88.0327706 145.195873,74.7144373" id="Fill-2" fill="#FFFFFF"></path>
                    <path d="M202.963316,32.7510275 L213.06053,32.7510275 L213.06053,56.1948902 C216.277159,52.7298118 221.143473,51.1783608 225.919287,51.1783608 C237.306773,51.1783608 244.559701,59.022949 244.559701,70.7924 L244.559701,97.5215373 L234.462487,97.5215373 L234.462487,70.9747725 C234.462487,66.0481451 230.788187,60.7567725 223.990344,60.7567725 C218.849944,60.7567725 214.898973,63.4024588 213.06053,68.7837333 L213.06053,97.5215373 L202.963316,97.5215373 L202.963316,32.7510275 Z" id="Fill-4" fill="#FFFFFF"></path>
                    <path d="M290.387867,82.4678392 L290.387867,66.9610353 C287.908167,63.2211137 283.222853,60.7578 278.172953,60.7578 C270.369267,60.7578 264.85911,66.7786627 264.85911,74.7131529 C264.85911,82.6502118 270.369267,88.6710745 278.172953,88.6710745 C283.222853,88.6710745 287.908167,86.2077608 290.387867,82.4678392 L290.387867,82.4678392 Z M290.387867,94.2372902 C287.173824,96.7905059 282.948767,98.2520549 278.082453,98.2520549 C264.491939,98.2520549 254.480053,88.0314863 254.480053,74.7131529 C254.480053,61.3948196 264.491939,51.1768196 278.082453,51.1768196 C282.948767,51.1768196 287.173824,52.7308392 290.387867,55.2814863 L290.387867,51.9088784 L300.490253,51.9088784 L300.490253,97.5199961 L290.387867,97.5199961 L290.387867,94.2372902 Z" id="Fill-6" fill="#FFFFFF"></path>
                    <path d="M324.183929,66.9607784 L324.183929,82.4675824 C326.573129,86.2075039 331.255857,88.6708176 336.398843,88.6708176 C344.205114,88.6708176 349.712686,82.6499549 349.712686,74.7154647 C349.712686,66.7784059 344.205114,60.7575431 336.398843,60.7575431 C331.255857,60.7575431 326.573129,63.2208569 324.183929,66.9607784 L324.183929,66.9607784 Z M314.084129,32.751798 L324.183929,32.751798 L324.183929,55.2812294 C327.307471,52.7305824 331.623029,51.1765627 336.489343,51.1765627 C350.082443,51.1765627 360.091743,61.3945627 360.091743,74.7154647 C360.091743,88.0312294 350.082443,98.251798 336.489343,98.251798 C331.623029,98.251798 327.307471,96.790249 324.183929,94.2370333 L324.183929,97.5197392 L314.084129,97.5197392 L314.084129,32.751798 Z" id="Fill-8" fill="#FFFFFF"></path>
                    <path d="M8.31514,57.2932353 C9.05206857,56.8617059 9.81744,56.4969608 10.6009114,56.1861569 L10.6009114,5.43778431 C10.6009114,2.53009804 8.22722571,0.172098039 5.30019714,0.172098039 C2.37316857,0.172098039 -0.000517142857,2.53009804 -0.000517142857,5.43778431 L-0.000517142857,59.4123529 C-0.000517142857,61.5956863 0.395097143,63.6839804 1.15271143,65.610451 C2.49728286,62.1659216 4.96922571,59.2376863 8.31514,57.2932353" id="Fill-11" fill="#FFFFFF"></path>
                    <path d="M75.1977429,122.622678 L32.7429,65.0494627 L31.2069857,67.6309333 C29.8339714,69.9581098 27.9386429,71.8922863 25.702,73.3204431 L66.6467857,128.843894 C67.6862429,130.254071 69.2971429,130.998973 70.9287286,130.998973 C72.0147286,130.998973 73.1110714,130.66762 74.0548571,129.979227 C76.4182,128.260816 76.9275857,124.967835 75.1977429,122.622678" id="Fill-14" fill="#2EB68C"></path>
                    <path d="M25.0946157,57.0474176 C20.6730443,54.5815353 15.3154443,54.3118294 10.6016871,56.1894961 C9.81821571,56.5003 9.05284429,56.8650451 8.31591571,57.2940059 C4.97000143,59.2410255 2.49805857,62.1692608 1.15348714,65.6112216 C0.40363,67.5274176 0.000258571429,69.6028686 0.000258571429,71.7605157 L0.000258571429,125.735084 C0.000258571429,128.642771 2.37394429,131.000771 5.30097286,131.000771 C8.22800143,131.000771 10.6016871,128.642771 10.6016871,125.735084 L10.6016871,74.9327706 L10.6016871,71.7605157 C10.6016871,68.6344961 12.5254586,67.0470843 13.67093,66.3792412 C14.6922871,65.7833196 15.8274157,65.4725157 16.9496157,65.4699471 C17.1694014,65.4519667 17.3762586,65.4314176 17.5469157,65.4005941 C19.4500014,65.0743784 21.0996871,63.9441824 22.0719157,62.2925549 L25.16443,57.0936529 C25.1437443,57.0782412 25.1204729,57.0602608 25.0946157,57.0474176" id="Fill-16" fill="#2EB68C"></path>
                    <path d="M64.8398886,0.733343137 C62.3188171,-0.746186275 59.0737457,0.0834803922 57.5817886,2.58789216 L25.1646886,57.091598 L22.0721743,62.2930686 C21.0999457,63.9421275 19.45026,65.0774608 17.5471743,65.4011078 C17.3765171,65.4293627 17.1670743,65.4524804 16.9498743,65.4704608 C15.8276743,65.4730294 14.68996,65.786402 13.6711886,66.3797549 C12.5257171,67.0450294 10.59936,68.6350098 10.59936,71.7584608 L10.59936,74.9332843 C12.4688314,75.6422255 14.4624171,76.0223824 16.4922029,76.0223824 C17.4385743,76.0223824 18.3952886,75.9401863 19.3468314,75.7783627 C21.6429457,75.3827941 23.7968457,74.5377157 25.7025171,73.3227549 C27.93916,71.8971667 29.8344886,69.9629902 31.2075029,67.6332451 L32.7434171,65.0517745 L66.70936,7.94348039 C68.1961457,5.44163725 67.36096,2.21287255 64.8398886,0.733343137" id="Fill-19" fill="#FFFFFF"></path>
                </g>
            </g>
        </g>
    </g>
</svg>