<?xml version="1.0" encoding="UTF-8" standalone="no"?>
<svg width="27px" height="46px" viewBox="0 0 27 46" version="1.1" xmlns="http://www.w3.org/2000/svg" xmlns:xlink="http://www.w3.org/1999/xlink">
    <!-- Generator: Sketch 43.2 (39069) - http://www.bohemiancoding.com/sketch -->
    <desc>Created with Sketch.</desc>
    <defs></defs>
    <g id="Page-1" stroke="none" stroke-width="1" fill="none" fill-rule="evenodd">
        <g id="17-kohab_buyer_onboarding_13" transform="translate(-627.000000, -50.000000)">
            <g id="Group-21" transform="translate(627.000000, 50.000000)">
                <path d="M2.93143155,19.9842843 C3.18519024,19.8349719 3.44876279,19.708479 3.71738249,19.600298 L3.71738249,1.94791578 C3.71738249,0.936535894 2.90142914,0.116726573 1.89480629,0.116726573 C0.888183439,0.116726573 0.0722300966,0.936535894 0.0722300966,1.94791578 L0.0722300966,20.7218309 C0.0722300966,21.4810702 0.20822232,22.2076297 0.468710518,22.8778449 C0.931084079,21.6802472 1.78124577,20.6609791 2.93143155,19.9842843" id="Fill-13" fill="#FFFFFF"></path>
                <path d="M25.9326796,42.7074266 L11.3324423,22.6821049 L10.8047364,23.5796693 C10.3319882,24.3899001 9.68006669,25.0629326 8.91121993,25.5587623 L22.9924436,44.8716105 C23.3491077,45.3612423 23.9028905,45.6209895 24.4639636,45.6207077 C24.8377319,45.6207077 25.214865,45.5057654 25.5395639,45.2665839 C26.3515917,44.6690528 26.5276806,43.5232918 25.9326796,42.7074266" id="Fill-15" fill="#2EB68C"></path>
                <path d="M8.70226858,19.898979 C7.18167924,19.0419825 5.33891451,18.9470424 3.71738249,19.6003543 C3.44876279,19.7088171 3.18519024,19.8350283 2.93143155,19.9846223 C1.78124577,20.6613172 0.931084079,21.6803035 0.468710518,22.8779013 C0.211026284,23.5447359 0.0722300966,24.2662244 0.0722300966,25.0161668 L0.0722300966,43.7903637 C0.0722300966,44.8017436 0.888183439,45.6215529 1.89480629,45.6215529 C2.90142914,45.6215529 3.71738249,44.8017436 3.71738249,43.7903637 L3.71738249,26.1196696 L3.71738249,25.0161668 C3.71738249,23.9290039 4.37911784,23.3771116 4.77335509,23.1449732 C5.12441131,22.9384714 5.5152838,22.8300086 5.90054837,22.8286 C5.97625538,22.8226839 6.04719566,22.8150774 6.10635928,22.8046537 C6.76080433,22.6914017 7.32832652,22.2972734 7.66283935,21.7234069 L8.72638266,19.9144737 C8.71825117,19.9099662 8.71040007,19.9037683 8.70226858,19.898979" id="Fill-17" fill="#2EB68C"></path>
                <path d="M22.3707769,0.311790482 C21.5037914,-0.202914545 20.3866924,0.0861316276 19.8744083,0.956932524 L8.7264107,19.9148118 L7.66286739,21.7234633 C7.32835456,22.2976115 6.76083237,22.691458 6.10638732,22.8049918 C6.04722369,22.8151337 5.97628342,22.8230219 5.90057641,22.8286564 C5.51531184,22.830065 5.12443935,22.9385277 4.77338313,23.1450295 C4.37914588,23.377168 3.71741053,23.9290602 3.71741053,25.0162232 L3.71741053,26.1200077 C4.36007893,26.3673591 5.04536758,26.4986413 5.74355446,26.4986413 C6.06937501,26.4986413 6.39799951,26.4707508 6.72550244,26.4141248 C7.51537892,26.2772082 8.25562525,25.9828093 8.91119189,25.5599455 C9.68003865,25.0638341 10.3319601,24.3910833 10.8047084,23.5805708 L11.3324143,22.6832881 L23.0128845,2.81967453 C23.5246078,1.94915535 23.237482,0.826213787 22.3707769,0.311790482" id="Fill-19" fill="#FFFFFF"></path>
            </g>
        </g>
    </g>
</svg>