<?xml version="1.0" encoding="UTF-8" standalone="no"?>

<svg width="50px" height="50px" viewBox="0 0 50 50" version="1.1" xmlns="http://www.w3.org/2000/svg" xmlns:xlink="http://www.w3.org/1999/xlink">
    <!-- Generator: Sketch 43.2 (39069) - http://www.bohemiancoding.com/sketch -->
    <desc>Created with Sketch.</desc>
    <defs></defs>
    <g id="Page-1" stroke="none" stroke-width="1" fill="none" fill-rule="evenodd">
        <g id="10-kohab_buyer_verification_confirmed" transform="translate(-432.000000, -228.000000)">
            <g id="Green-tick" transform="translate(432.000000, 228.000000)">
                <circle id="Oval-2" fill="#2EB68C" cx="25" cy="25" r="25"></circle>
                <g id="Tick-ICN" transform="translate(16.000000, 18.000000)" fill-rule="nonzero" fill="#FFFFFF">
                    <path d="M16.9231464,0.17292842 C16.6941384,-0.0576428065 16.3213164,-0.0576428065 16.0938716,0.17292842 L7.35483131,8.87132562 C7.12582328,9.10346004 6.75221974,9.10346004 6.5247749,8.87132562 L2.69572935,4.97193631 C2.58239773,4.8562599 2.43389423,4.79920329 2.28460913,4.79842169 C2.13376084,4.7976401 1.98056775,4.85469671 1.86567294,4.97193631 L0.173514618,6.49292481 C0.0609645954,6.60860122 0,6.75319673 0,6.90404503 C0,7.05567492 0.0609645954,7.21433919 0.174296215,7.329234 L4.03538726,11.3810348 C4.26361369,11.6123876 4.63799883,11.9875544 4.86544367,12.217344 L6.5255565,13.890744 C6.75378293,14.119752 7.12660488,14.119752 7.35561291,13.890744 L18.5840408,2.6826376 C18.8130489,2.45284797 18.8130489,2.07533643 18.5840408,1.84554681 L16.9231464,0.17292842 Z" id="Shape"></path>
                </g>
            </g>
        </g>
    </g>
</svg>